<?xml version="1.0" standalone="no"?>
<!DOCTYPE svg PUBLIC "-//W3C//DTD SVG 20010904//EN"
 "http://www.w3.org/TR/2001/REC-SVG-20010904/DTD/svg10.dtd">
<svg version="1.0" xmlns="http://www.w3.org/2000/svg"
 width="700.000000pt" height="700.000000pt" viewBox="0 0 700.000000 700.000000"
 preserveAspectRatio="xMidYMid meet">
<metadata>
Created by potrace 1.11, written by Peter Selinger 2001-2013
</metadata>
<g transform="translate(0.000000,700.000000) scale(0.100000,-0.100000)"
fill="#000000" stroke="none">
<path d="M685 3500 l0 -3500 580 2 580 3 0 2190 c0 1205 2 2192 6 2195 4 3
156 5 338 5 l330 -1 21 -27 c20 -26 471 -568 514 -617 11 -14 52 -63 91 -110
38 -47 72 -87 75 -90 3 -3 59 -70 124 -148 l119 -144 31 34 c17 18 63 69 101
112 39 44 77 87 85 96 8 9 44 49 80 90 36 41 76 86 90 101 30 32 61 67 155
174 39 43 77 86 85 95 47 51 177 198 275 309 17 19 50 55 75 81 l45 46 330 -2
c182 -1 336 -2 343 -3 10 -1 12 -412 12 -2083 0 -1146 0 -2134 0 -2195 l0
-113 573 0 572 0 0 3498 -1 3497 -605 3 -606 2 -59 -56 c-32 -31 -182 -176
-333 -323 -304 -295 -506 -491 -644 -625 -51 -48 -204 -197 -341 -330 -136
-132 -252 -243 -258 -244 -5 -2 -59 48 -121 111 -62 63 -242 248 -402 412
-159 163 -335 343 -390 400 -55 56 -221 227 -369 379 l-269 276 -616 0 -616 0
0 -3500z"/>
<path d="M2232 3430 c-4 -3 -7 -774 -7 -1715 l0 -1710 353 -3 352 -2 2 1052 3
1053 102 1 c57 0 106 -2 111 -5 5 -3 82 -97 171 -208 147 -183 181 -219 181
-195 0 4 13 21 28 37 15 17 52 59 82 95 30 35 64 74 75 86 18 19 52 58 136
158 l27 31 108 1 c60 1 111 -2 114 -6 3 -5 5 -479 4 -1054 l0 -1046 350 2 351
3 0 1712 c0 1516 -2 1713 -15 1714 -8 1 -136 2 -285 4 l-270 2 -135 -138 c-74
-75 -234 -239 -355 -363 -120 -124 -225 -226 -231 -226 -7 0 -19 8 -26 19 -7
10 -60 69 -118 131 -58 62 -121 129 -140 150 -19 21 -83 89 -141 151 -58 63
-118 127 -133 143 -14 16 -48 52 -74 80 l-47 51 -283 0 c-156 0 -286 -2 -290
-5z"/>
</g>
</svg>
