<?xml version="1.0" encoding="utf-8"?>
<!-- Generator: Adobe Illustrator 16.0.0, SVG Export Plug-In . SVG Version: 6.00 Build 0)  -->
<!DOCTYPE svg PUBLIC "-//W3C//DTD SVG 1.1//EN" "http://www.w3.org/Graphics/SVG/1.1/DTD/svg11.dtd">
<svg version="1.1" id="Layer_1" xmlns="http://www.w3.org/2000/svg" xmlns:xlink="http://www.w3.org/1999/xlink" x="0px" y="0px"
	 width="124px" height="124px" viewBox="7.429 5.259 99.569 123.83" enable-background="new 7.429 5.259 99.569 123.83"
	 xml:space="preserve">
   <style>
    polygon {fill: rgb(46, 46, 161)}
    @media (prefers-color-scheme: dark) {
      polygon { fill: rgb(220,220,220); }
    }
   </style>
<polygon points="85.557,5.259 56.575,33.34 29.188,5.259 7.429,5.259 7.429,129.466 27.94,129.466 27.94,51.349 39.799,51.349
   56.575,71.473 74.514,51.349 86.717,51.349 86.717,129.466 106.998,129.466 106.998,5.259 "/>
 <polygon points="69.623,68.328 56.969,81.303 44.923,68.328 34.676,68.328 34.676,129.089 47.153,129.089 47.153,91.838
   50.955,91.838 56.969,99.276 63.392,91.838 67.361,91.838 67.361,129.089 79.752,129.089 79.752,68.328 "/>
</svg>
